<svg xmlns="http://www.w3.org/2000/svg" width="16" height="16" viewBox="0 0 16 16"><defs><style>.a{fill:#fff;}</style></defs><g transform="translate(-6 1.998)"><g transform="translate(-2 -1.998)"><path class="a" d="M15.124,6.752H9.25V.888A.884.884,0,0,0,8.377,0H7.625A.885.885,0,0,0,6.75.888V6.752H.875A.874.874,0,0,0,0,7.625v.756a.873.873,0,0,0,.875.871H6.75v5.885A.867.867,0,0,0,7.625,16h.752a.866.866,0,0,0,.873-.865V9.252h5.874A.873.873,0,0,0,16,8.381V7.625A.875.875,0,0,0,15.124,6.752Z" transform="translate(8 -0.002)"/></g></g></svg>