<svg xmlns="http://www.w3.org/2000/svg" width="24" height="23.963" viewBox="0 0 24 23.963">
  <g id="discover" transform="translate(-131.943 -153.011)">
    <path id="Path_29" data-name="Path 29" d="M155.943,164.978A12,12,0,1,1,140.7,153.448a11.763,11.763,0,0,1,3.18-.436.922.922,0,1,1,.012,1.843,10.031,10.031,0,0,0-9.507,6.775,10.133,10.133,0,0,0,10.351,13.449,10.125,10.125,0,0,0,2.762-19.57.923.923,0,0,1-.693-.855.907.907,0,0,1,1.245-.912,11.719,11.719,0,0,1,4.692,3.13,11.9,11.9,0,0,1,3.024,6.248C155.866,163.733,155.886,164.359,155.943,164.978Z" fill="#676f81"/>
    <path id="Path_30" data-name="Path 30" d="M209.117,241.48a.943.943,0,0,1-.859-1.374c.33-.712.677-1.417,1.015-2.126q1.132-2.373,2.259-4.747a1.31,1.31,0,0,1,.653-.653c2.25-1.068,4.495-2.145,6.746-3.21a1.372,1.372,0,0,1,.655-.162.912.912,0,0,1,.71,1.39q-1.114,2.35-2.239,4.694c-.347.726-.7,1.45-1.037,2.18a1.19,1.19,0,0,1-.594.6q-3.437,1.634-6.873,3.271A2.884,2.884,0,0,1,209.117,241.48Zm8.392-9.349c-.124.045-.167.057-.208.076-1.34.637-2.68,1.272-4.015,1.917a.582.582,0,0,0-.239.263q-.937,1.939-1.858,3.886a2.48,2.48,0,0,0-.084.237.526.526,0,0,0,.1-.014c1.366-.649,2.732-1.3,4.095-1.955a.544.544,0,0,0,.217-.246c.312-.636.615-1.276.919-1.915Z" transform="translate(-70.36 -70.344)" fill="#676f81"/>
  </g>
</svg>
