<svg xmlns="http://www.w3.org/2000/svg" width="24" height="24" viewBox="0 0 24 24">
  <g id="discover-active" transform="translate(-455.02 -299.2)">
    <path id="Path_67" data-name="Path 67" d="M513.226,350.693c.045-.021.093-.034.229-.083l-1.185,2.484c-.335.706-.67,1.415-1.015,2.117a.582.582,0,0,1-.239.271q-2.258,1.088-4.524,2.161a.442.442,0,0,1-.112.015c.026-.087.059-.176.093-.261q1.02-2.15,2.053-4.295a.644.644,0,0,1,.265-.29C510.266,352.1,511.745,351.4,513.226,350.693Z" transform="translate(-42.891 -42.931)" fill="#4884fc"/>
    <path id="Path_68" data-name="Path 68" d="M467.02,299.2a12,12,0,1,0,12,12A12,12,0,0,0,467.02,299.2Zm6,7.279q-1.113,2.35-2.239,4.7c-.348.727-.7,1.452-1.037,2.182a1.193,1.193,0,0,1-.595.6q-3.435,1.635-6.873,3.273a2.917,2.917,0,0,1-.435.137.943.943,0,0,1-.859-1.375c.329-.713.677-1.418,1.015-2.127q1.131-2.373,2.259-4.749a1.3,1.3,0,0,1,.653-.653c2.249-1.068,4.495-2.146,6.746-3.211a1.363,1.363,0,0,1,.655-.163.913.913,0,0,1,.71,1.39Z" fill="#4884fc"/>
  </g>
</svg>
