<svg xmlns="http://www.w3.org/2000/svg" width="136" height="136" viewBox="0 0 136 136"><defs><style>.a{opacity:0.42;}.b{fill:#ccc;}</style></defs><g class="a"><path class="b" d="M378.968,368a10.968,10.968,0,1,0,10.968,10.968A10.981,10.981,0,0,0,378.968,368Zm0,17.548a6.581,6.581,0,1,1,6.581-6.581A6.589,6.589,0,0,1,378.968,385.548Zm0,0" transform="translate(-267.097 -267.097)"/><path class="b" d="M216,256h4.387v4.387H216Zm0,0" transform="translate(-156.774 -185.806)"/><path class="b" d="M248,256h4.387v4.387H248Zm0,0" transform="translate(-180 -185.806)"/><path class="b" d="M184,256h4.387v4.387H184Zm0,0" transform="translate(-133.548 -185.806)"/><path class="b" d="M170.323,32H144V53.935h26.323Zm-4.387,17.548H148.387V36.387h17.548Zm0,0" transform="translate(-104.516 -23.226)"/><path class="b" d="M256,32h35.1v4.387H256Zm0,0" transform="translate(-185.806 -23.226)"/><path class="b" d="M256,64h35.1v4.387H256Zm0,0" transform="translate(-185.806 -46.452)"/><path class="b" d="M369.266,96h4.04v4.387h-4.04Zm0,0" transform="translate(-268.016 -69.677)"/><path class="b" d="M256,96h26.369v4.387H256Zm0,0" transform="translate(-185.806 -69.677)"/><path class="b" d="M136,15.355H122.839V27.867a68.148,68.148,0,0,0-8.774-9.843V0H30.71V11.161a67.948,67.948,0,0,0-16.353,98.607l-11.9,11.9a8.4,8.4,0,1,0,11.876,11.874l11.9-11.9A68.133,68.133,0,0,0,68,136a67.3,67.3,0,0,0,27.884-5.993l2.782,2.782,3.985-2.656a20.37,20.37,0,0,0,2.823,1.169l.941,4.7h10.912l.939-4.7a20.638,20.638,0,0,0,2.823-1.169l3.985,2.656,7.717-7.713-2.658-3.985a20.508,20.508,0,0,0,1.169-2.825l4.7-.941V106.416l-4.7-.941a20.777,20.777,0,0,0-1.169-2.825l2.658-3.985-2.782-2.779A67.351,67.351,0,0,0,136,68a68.694,68.694,0,0,0-.621-8.774H136Zm-8.774,4.387h4.387v35.1h-4.387Zm-4.387,16.039V54.839h-4.387V32.9h-4.387V24.129A63.669,63.669,0,0,1,122.839,35.781ZM106.416,87.742l-.939,4.7a20.638,20.638,0,0,0-2.823,1.169l-3.985-2.656-7.717,7.713,2.658,3.985a20.508,20.508,0,0,0-1.169,2.825l-4.7.941v3.259H75.866l-8.774,8.774H29.424l8.963-8.963,3.933,3.933,3.1-3.1-3.933-3.933,4.808-4.808A32.863,32.863,0,0,0,91.556,59.226h18.121V87.742Zm-62.545,35.1h8.774v6.855a63.668,63.668,0,0,1-8.774-2.9ZM39.484,124.8c-1.235-.619-2.457-1.26-3.65-1.959h3.65Zm17.548-1.959h8.774v8.68a63.6,63.6,0,0,1-8.774-.864Zm13.161-1.285,7.489-7.489h1.285v16.607a63.91,63.91,0,0,1-8.774.883ZM61.419,43.871A28.516,28.516,0,1,1,32.9,72.387,28.549,28.549,0,0,1,61.419,43.871Zm35.1,10.968H92.129V46.064h4.387ZM42.448,99.225l-4.06,4.06-5.672-5.672,3.793-3.793a33.22,33.22,0,0,0,5.94,5.4ZM114.065,37.29V54.839h-4.387V37.29Zm-4.387-32.9V32.9H105.29V54.839H100.9V41.677H87.742V52.729a32.779,32.779,0,0,0-52.645,0V4.387ZM4.387,68A63.3,63.3,0,0,1,30.71,16.456V60.672A32.581,32.581,0,0,0,33.845,90.28l-4.232,4.231L25.68,90.578l-3.1,3.1,3.933,3.933-9,9A63.7,63.7,0,0,1,4.387,68Zm6.846,62.439A4.011,4.011,0,0,1,4.387,127.6a3.987,3.987,0,0,1,1.174-2.836l24.052-24.05,5.672,5.672Zm72.121-.706V114.064h4.387v3.259l4.7.941a20.777,20.777,0,0,0,1.169,2.825l-2.658,3.985,1.615,1.614a62.5,62.5,0,0,1-9.211,3.043Zm48.258-19.721v3.714l-3.83.767-.337,1.341a15.968,15.968,0,0,1-1.76,4.243l-.71,1.189,2.169,3.251-2.625,2.627-3.251-2.167-1.189.708a16.038,16.038,0,0,1-4.245,1.758l-1.341.34-.765,3.83h-3.714l-.765-3.83-1.341-.34a15.982,15.982,0,0,1-4.245-1.758l-1.189-.708-3.251,2.167L96.6,124.517l2.169-3.251-.71-1.189a16.1,16.1,0,0,1-1.76-4.243l-.337-1.341-3.832-.765v-3.714l3.83-.767.337-1.341a15.968,15.968,0,0,1,1.76-4.243l.71-1.189L96.6,99.225,99.223,96.6l3.251,2.167,1.189-.708a16.039,16.039,0,0,1,4.245-1.758l1.341-.34.765-3.83h3.714l.765,3.83,1.341.34a15.983,15.983,0,0,1,4.245,1.758l1.189.708,3.251-2.167,2.625,2.627-2.169,3.251.71,1.189a16.1,16.1,0,0,1,1.76,4.243l.337,1.341Zm0-42.013a63.034,63.034,0,0,1-4.925,24.568l-1.614-1.615-3.985,2.656a20.37,20.37,0,0,0-2.823-1.169l-.939-4.7h-3.261V59.226h16.9A64.412,64.412,0,0,1,131.613,68Zm0,0"/><path class="b" d="M138.066,190.4c-.149.337-.283.684-.419,1.031-.13.331-.255.664-.368,1-.123.366-.237.735-.345,1.11-.1.348-.186.7-.269,1.051s-.169.72-.238,1.086c-.078.423-.138.848-.195,1.277-.04.3-.09.605-.119.913-.07.75-.114,1.5-.114,2.261a24.158,24.158,0,0,0,24.129,24.129c.759,0,1.513-.044,2.264-.114.3-.029.6-.079.905-.119.431-.057.86-.117,1.285-.2.362-.069.72-.152,1.075-.236s.713-.172,1.068-.274.73-.216,1.09-.337.691-.245,1.034-.379.668-.259,1-.4c.394-.174.781-.368,1.166-.563.255-.13.516-.251.766-.389q.876-.484,1.708-1.04l.134-.082c.611-.41,1.2-.847,1.775-1.314l-.006-.009a24.519,24.519,0,0,0,3.409-3.407l.009.006c.465-.568.9-1.156,1.3-1.761.06-.088.11-.182.169-.272.337-.514.66-1.036.956-1.571.149-.27.281-.548.419-.825.184-.366.368-.733.536-1.11.149-.337.283-.684.419-1.031.13-.331.255-.664.368-1,.123-.366.237-.735.345-1.11.1-.348.186-.7.27-1.051s.168-.72.237-1.086c.078-.423.138-.848.195-1.276.04-.305.09-.606.119-.913.067-.753.111-1.507.111-2.264A24.158,24.158,0,0,0,160.129,176c-.759,0-1.513.044-2.264.114-.3.029-.6.079-.905.119-.431.057-.86.117-1.285.2-.362.069-.72.152-1.075.236s-.713.172-1.068.274-.73.216-1.09.337-.691.245-1.034.379-.668.259-1,.4c-.394.174-.781.368-1.166.563-.255.13-.516.251-.766.389q-.876.484-1.708,1.04l-.134.082c-.611.41-1.2.847-1.775,1.314l.006.009a24.518,24.518,0,0,0-3.409,3.407l-.009-.006c-.465.568-.9,1.156-1.3,1.761-.06.088-.11.182-.169.272-.337.514-.66,1.036-.956,1.571-.149.27-.281.548-.419.825C138.417,189.655,138.233,190.022,138.066,190.4Zm41.8,9.731c0,.626-.038,1.241-.094,1.852-.025.247-.063.493-.1.741-.046.352-.1.7-.161,1.051-.055.3-.122.588-.193.882s-.142.584-.224.871-.178.6-.276.9-.2.561-.307.838-.214.553-.333.825c-.14.32-.3.63-.454.941-.107.212-.21.43-.325.641-.261.469-.54.93-.835,1.375-.029.044-.052.09-.081.132a19.957,19.957,0,0,1-5.3,5.308c-.071.048-.145.088-.217.134-.421.278-.85.542-1.294.787-.215.119-.439.224-.659.333-.3.156-.612.307-.925.448-.274.121-.551.228-.829.335s-.553.211-.833.305c-.3.1-.6.193-.9.278-.285.081-.574.154-.864.224s-.588.138-.886.193c-.347.066-.7.115-1.049.161-.247.032-.494.072-.743.1-.617.059-1.233.1-1.858.1a19.765,19.765,0,0,1-19.742-19.742c0-.625.037-1.241.094-1.852.025-.247.063-.493.1-.741.046-.352.1-.7.161-1.051.057-.3.122-.59.193-.884s.142-.582.224-.866c.086-.3.178-.6.278-.9s.2-.563.31-.84.214-.551.333-.82c.142-.32.3-.634.456-.946.107-.212.209-.427.325-.636.259-.467.538-.923.831-1.369.031-.046.057-.094.088-.14a19.91,19.91,0,0,1,5.306-5.306c.069-.046.14-.086.209-.13.423-.281.858-.546,1.3-.792.215-.118.437-.224.657-.333.3-.156.612-.307.928-.448.272-.121.551-.228.829-.335s.553-.211.835-.307.6-.193.9-.278.577-.156.869-.224.588-.136.884-.193c.347-.066.7-.115,1.049-.161.248-.032.494-.072.744-.1.6-.059,1.219-.1,1.844-.1a19.765,19.765,0,0,1,19.742,19.742Zm0,0" transform="translate(-98.71 -127.742)"/></g></svg>