<svg xmlns="http://www.w3.org/2000/svg" width="80" height="79.911" viewBox="0 0 80 79.911">
  <g id="faq_bg" transform="translate(-443.943 -141.106)" opacity="0.1">
    <path id="Path_92" data-name="Path 92" d="M516.118,181.35c.192-16.114-12.282-30.5-27.952-32.239-17.12-1.9-32.367,8.963-35.676,25.414a32.033,32.033,0,0,0,35.913,38.3c4.154-.6,8.153-2.6,12.086-4.282,2.713-1.159,4.9-1.086,6.088.912,1.242,2.086.4,4.416-2.14,5.926-23.97,14.239-54.954.151-59.85-27.213a39.989,39.989,0,1,1,79.272-4.574,14.2,14.2,0,0,1-.349,2.426,3.833,3.833,0,0,1-7.55-.66C515.9,184.029,516.056,182.687,516.118,181.35Z" transform="translate(0 0)" fill="#fff"/>
    <path id="Path_93" data-name="Path 93" d="M517.257,179.321a13.136,13.136,0,0,1,12.477,9.056,12.852,12.852,0,0,1-4.858,14.586c-2.19,1.483-3.556,3.169-3.752,5.905a3.814,3.814,0,0,1-4.072,3.332,3.9,3.9,0,0,1-3.592-3.886,12.877,12.877,0,0,1,6.171-11.2c1.638-1.1,2.8-2.413,2.866-4.477a5.182,5.182,0,0,0-10.328-.794c-.026.221-.007.447-.035.668a3.826,3.826,0,0,1-4.4,3.67,3.95,3.95,0,0,1-3.464-4.414A13.125,13.125,0,0,1,517.257,179.321Z" transform="translate(-33.373 -21.146)" fill="#fff"/>
    <path id="Path_94" data-name="Path 94" d="M532.542,267.919a3.89,3.89,0,1,1-3.828-3.89A3.988,3.988,0,0,1,532.542,267.919Z" transform="translate(-44.72 -68.017)" fill="#fff"/>
  </g>
</svg>
