<svg xmlns="http://www.w3.org/2000/svg" width="22.222" height="19.771" viewBox="0 0 22.222 19.771"><defs><style>.a{fill:#fff;}</style></defs><path class="a" d="M11.111,19.771a1.3,1.3,0,0,1-.859-.323c-.9-.785-1.763-1.523-2.527-2.173l0,0A46.994,46.994,0,0,1,2.2,12.093,8.271,8.271,0,0,1,0,6.679,6.946,6.946,0,0,1,1.763,1.935,5.976,5.976,0,0,1,6.208,0,5.59,5.59,0,0,1,9.7,1.205a7.144,7.144,0,0,1,1.412,1.474,7.144,7.144,0,0,1,1.412-1.474A5.59,5.59,0,0,1,16.015,0,5.976,5.976,0,0,1,20.46,1.935a6.945,6.945,0,0,1,1.763,4.744,8.27,8.27,0,0,1-2.2,5.414A46.989,46.989,0,0,1,14.5,17.271c-.765.652-1.632,1.391-2.532,2.177a1.3,1.3,0,0,1-.859.322ZM6.208,1.3A4.688,4.688,0,0,0,2.72,2.817,5.65,5.65,0,0,0,1.3,6.679a6.959,6.959,0,0,0,1.9,4.584,46.245,46.245,0,0,0,5.359,5.018l0,0c.767.653,1.635,1.394,2.54,2.185.91-.792,1.78-1.534,2.548-2.188a46.257,46.257,0,0,0,5.359-5.018,6.96,6.96,0,0,0,1.9-4.584A5.65,5.65,0,0,0,19.5,2.817,4.688,4.688,0,0,0,16.015,1.3a4.317,4.317,0,0,0-2.7.933,6.317,6.317,0,0,0-1.5,1.738.822.822,0,0,1-1.412,0A6.311,6.311,0,0,0,8.9,2.235a4.317,4.317,0,0,0-2.7-.933Zm0,0" transform="translate(0 0)"/></svg>