<svg xmlns="http://www.w3.org/2000/svg" width="24" height="16.615" viewBox="0 0 24 16.615">
  <g id="Group_19" data-name="Group 19" transform="translate(-105.008 -201.748)">
    <path id="Path_27" data-name="Path 27" d="M118.993,201.749q4.6,0,9.2,0a2.7,2.7,0,0,1,2.367,1.3.983.983,0,0,1-.278,1.539q-3.146,2.362-6.3,4.72-2.133,1.6-4.265,3.2a1,1,0,0,1-1.476.005l-10.54-7.9a1,1,0,0,1-.278-1.6,2.661,2.661,0,0,1,2.3-1.253Q114.363,201.741,118.993,201.749Zm-9.391,1.87-.018.063c.051.041.1.083.153.122q4.531,3.4,9.059,6.8a.271.271,0,0,0,.394-.016q4.492-3.378,8.992-6.747c.072-.054.142-.11.213-.166l-.024-.056Z" transform="translate(-1.974)" fill="#4884fc"/>
    <path id="Path_28" data-name="Path 28" d="M117.009,284.784q-4.556,0-9.113,0a2.754,2.754,0,0,1-2.888-2.9q0-3.619,0-7.238a.92.92,0,0,1,1.8-.28,1.42,1.42,0,0,1,.039.4q0,3.547,0,7.094a.959.959,0,0,0,1.079,1.084l18.139,0a.957.957,0,0,0,1.086-1.078q0-3.6,0-7.209a.921.921,0,0,1,1.8-.291,1.124,1.124,0,0,1,.041.339q0,3.662,0,7.325a2.746,2.746,0,0,1-2.767,2.76Q121.623,284.789,117.009,284.784Z" transform="translate(0 -66.422)" fill="#4884fc"/>
  </g>
</svg>
