<svg xmlns="http://www.w3.org/2000/svg" width="10.083" height="10.083" viewBox="0 0 10.083 10.083">
  <g id="clock_1_" data-name="clock (1)" transform="translate(0 0)">
    <path id="Path_97" data-name="Path 97" d="M9.023,2.653a.42.42,0,0,0-.2.561,4.159,4.159,0,0,1,.416,1.827,4.2,4.2,0,1,1-4.2-4.2,4.151,4.151,0,0,1,2.608.906.42.42,0,1,0,.523-.658,5.042,5.042,0,1,0,1.911,3.953,4.99,4.99,0,0,0-.5-2.193.42.42,0,0,0-.561-.2Zm0,0" transform="translate(0 0)" fill="#4677fc"/>
    <path id="Path_98" data-name="Path 98" d="M176.42,64a.42.42,0,0,0-.42.42v2.941a.42.42,0,0,0,.42.42h2.1a.42.42,0,0,0,0-.84H176.84V64.42A.42.42,0,0,0,176.42,64Zm0,0" transform="translate(-171.378 -62.32)" fill="#4677fc"/>
  </g>
</svg>
