<svg xmlns="http://www.w3.org/2000/svg" width="4.992" height="19.966" viewBox="0 0 4.992 19.966"><defs><style>.a{fill:#fff;}</style></defs><g transform="translate(-128 -5)"><g transform="translate(128 3)"><g transform="translate(0 2)"><path class="a" d="M130.5,4.991A2.5,2.5,0,1,0,128,2.5,2.5,2.5,0,0,0,130.5,4.991Z" transform="translate(-128)"/><path class="a" d="M130.5,128a2.5,2.5,0,1,0,2.5,2.5A2.5,2.5,0,0,0,130.5,128Z" transform="translate(-128 -120.513)"/><path class="a" d="M130.5,256a2.5,2.5,0,1,0,2.5,2.5A2.5,2.5,0,0,0,130.5,256Z" transform="translate(-128 -241.026)"/></g></g></g></svg>