<svg id="notification" xmlns="http://www.w3.org/2000/svg" width="25" height="27.273" viewBox="0 0 25 27.273">
  <path id="Path_42" data-name="Path 42" d="M137.6,421.124a4.275,4.275,0,0,1-4.27-4.27.854.854,0,1,1,1.708,0,2.562,2.562,0,1,0,5.124,0,.854.854,0,1,1,1.708,0A4.275,4.275,0,0,1,137.6,421.124Zm0,0" transform="translate(-126.237 -393.851)" fill="#676f81"/>
  <path id="Path_43" data-name="Path 43" d="M20.734,84.441H1.988A1.988,1.988,0,0,1,.7,80.943a.785.785,0,0,1,.091-.068,7.631,7.631,0,0,0,2.622-5.758V71.949A7.961,7.961,0,0,1,11.361,64a3.423,3.423,0,0,1,.56.034.851.851,0,1,1-.28,1.679,1.789,1.789,0,0,0-.281-.01,6.255,6.255,0,0,0-6.249,6.246v3.168a9.338,9.338,0,0,1-3.3,7.121c-.017.014-.032.026-.05.039a.281.281,0,0,0-.06.176.287.287,0,0,0,.284.284H20.734a.287.287,0,0,0,.284-.284.271.271,0,0,0-.061-.176c-.017-.012-.032-.025-.049-.039a9.336,9.336,0,0,1-3.3-7.121V73.88a.852.852,0,0,1,1.7,0v1.238a7.633,7.633,0,0,0,2.626,5.761.829.829,0,0,1,.087.066,1.987,1.987,0,0,1-1.293,3.5Zm0,0" transform="translate(0 -60.584)" fill="#676f81"/>
  <path id="Path_44" data-name="Path 44" d="M261.693,11.386a5.693,5.693,0,1,1,5.693-5.693A5.7,5.7,0,0,1,261.693,11.386Zm0-9.678a3.985,3.985,0,1,0,3.985,3.985,3.99,3.99,0,0,0-3.985-3.985Zm0,0" transform="translate(-242.387)" fill="#676f81"/>
</svg>
