<svg xmlns="http://www.w3.org/2000/svg" width="24" height="23.766" viewBox="0 0 24 23.766">
  <g id="search" transform="translate(-146.149 -174.793)">
    <path id="Path_26" data-name="Path 26" d="M160.962,188.029c.416.414.812.819,1.223,1.209a.318.318,0,0,0,.271.046,2.8,2.8,0,0,1,3.131.752c1.231,1.242,2.478,2.469,3.705,3.715a2.79,2.79,0,0,1-.065,4.083,2.684,2.684,0,0,1-3.666,0c-1.4-1.353-2.792-2.726-4.137-4.139a2.581,2.581,0,0,1-.521-2.816.291.291,0,0,0-.075-.369c-.395-.378-.777-.768-1.177-1.167-.064.042-.12.074-.171.112a8.3,8.3,0,1,1-9.243-13.762.943.943,0,0,1,1.191.1.893.893,0,0,1,.145,1.11,1.506,1.506,0,0,1-.457.422,6.451,6.451,0,1,0,5.238-.654,1.7,1.7,0,0,1-.627-.324.875.875,0,0,1-.128-1.109.909.909,0,0,1,1.045-.407,8.1,8.1,0,0,1,5.931,6.28,8,8,0,0,1-1.457,6.7Zm2.63,2.895a.967.967,0,0,0-.946.569.893.893,0,0,0,.211,1.031q1.922,1.927,3.848,3.851a.918.918,0,0,0,1.316.049.933.933,0,0,0-.023-1.344q-1.927-1.943-3.877-3.863A1.986,1.986,0,0,0,163.592,190.924Z" fill="#676f81"/>
  </g>
</svg>
