<svg xmlns="http://www.w3.org/2000/svg" width="11.757" height="13.934" viewBox="0 0 11.757 13.934">
  <g id="add-to-cart" transform="translate(-43)">
    <path id="Path_99" data-name="Path 99" d="M51.757,12.3a.544.544,0,0,1-.544.544h-.544v.544a.544.544,0,0,1-1.089,0v-.544h-.544a.544.544,0,0,1,0-1.089h.544v-.544a.544.544,0,1,1,1.089,0v.544h.544A.544.544,0,0,1,51.757,12.3Zm0-8.491V9.035a.544.544,0,1,1-1.089,0V4.354H49.58V5.987a.544.544,0,1,1-1.089,0V4.354H43.266V5.987a.544.544,0,0,1-1.089,0V4.354H41.089v8.491h5.77a.544.544,0,1,1,0,1.089H40.544A.544.544,0,0,1,40,13.39V3.81a.544.544,0,0,1,.544-.544H42.2a3.7,3.7,0,0,1,7.351,0h1.659A.544.544,0,0,1,51.757,3.81Zm-3.3-.544a2.613,2.613,0,0,0-5.152,0Z" transform="translate(3)" fill="#4677fc"/>
  </g>
</svg>
