<svg xmlns="http://www.w3.org/2000/svg" width="81.218" height="81.309" viewBox="0 0 81.218 81.309">
  <g id="setup_bg" opacity="0.1">
    <path id="Path_87" data-name="Path 87" d="M217.91,146.885a22.879,22.879,0,1,1,22.19,22.968C227.957,169.722,217.828,159.237,217.91,146.885Zm22.853,14.908a14.925,14.925,0,1,0-.148-29.849,15.18,15.18,0,0,0-14.9,14.917A15.022,15.022,0,0,0,240.763,161.793Z" transform="translate(-203.932 -123.995)" fill="#fff"/>
    <path id="Path_88" data-name="Path 88" d="M214.154,262c-5.217,0-10.433.03-15.65-.006-7.739-.055-12.841-6.4-10.993-13.882a35.79,35.79,0,0,1,12.081-18.992c2.035-1.723,4.324-1.574,5.843.2s1.316,4.058-.7,5.811a30.584,30.584,0,0,0-9.231,13.74c-1.1,3.351.1,5.174,3.6,5.182,10.282.026,20.564,0,30.846.025a8.817,8.817,0,0,1,2.9.348,3.777,3.777,0,0,1,2.267,4.451A3.908,3.908,0,0,1,230.939,262C225.344,262.015,219.749,262,214.154,262Z" transform="translate(-187.132 -180.716)" fill="#fff"/>
    <path id="Path_89" data-name="Path 89" d="M321.589,261.942c-2.868,0-5.737.052-8.6-.013-2.653-.06-4.231-1.611-4.228-3.991s1.595-3.949,4.252-3.972q8.715-.076,17.432,0a4.022,4.022,0,0,1,4.291,3.993c-.007,2.294-1.689,3.907-4.316,3.968C327.476,261.993,324.532,261.94,321.589,261.942Z" transform="translate(-253.52 -194.917)" fill="#fff"/>
    <path id="Path_90" data-name="Path 90" d="M321.855,285.5c2.867,0,5.734-.042,8.6.014,2.62.051,4.295,1.655,4.281,3.964-.014,2.256-1.767,3.918-4.337,3.937q-8.712.063-17.424,0c-2.683-.023-4.228-1.563-4.216-3.984.012-2.4,1.546-3.864,4.273-3.917C315.971,285.456,318.914,285.5,321.855,285.5Z" transform="translate(-253.52 -212.142)" fill="#fff"/>
    <path id="Path_91" data-name="Path 91" d="M321.787,230.522c-2.866,0-5.732.023-8.6-.006-2.893-.029-4.451-1.448-4.435-3.967.016-2.433,1.523-3.86,4.281-3.879q8.71-.058,17.421,0c2.614.017,4.3,1.628,4.279,3.937-.017,2.258-1.764,3.865-4.351,3.9C327.52,230.553,324.653,230.521,321.787,230.522Z" transform="translate(-253.518 -177.84)" fill="#fff"/>
  </g>
</svg>
