<svg xmlns="http://www.w3.org/2000/svg" width="21" height="20.994" viewBox="0 0 21 20.994">
  <g id="star_w" transform="translate(0 -0.07)">
    <g id="Group_110" data-name="Group 110" transform="translate(0 0.07)">
      <path id="Path_102" data-name="Path 102" d="M20.425,10.318a1.9,1.9,0,0,0-1.058-3.246L14.38,6.541a.162.162,0,0,1-.082-.079L12.187,1.186A1.833,1.833,0,0,0,8.84,1.125l-2.166,5.4c0-.016-.039.016-.09.023l-4.92.522A1.907,1.907,0,0,0,.575,10.32l3.618,3.571a.159.159,0,0,1,.048.142l-.823,4.8a1.9,1.9,0,0,0,2.763,2.007l4.313-2.267c.009,0,4.324,2.267,4.324,2.267a1.9,1.9,0,0,0,2.764-2.007l-.824-4.8a.155.155,0,0,1,.045-.137Zm-5.393,4.009.824,4.8a.155.155,0,0,1-.225.162L11.32,17.025a1.9,1.9,0,0,0-.761-.209h-.118a1.889,1.889,0,0,0-.762.209L5.367,19.292a.154.154,0,0,1-.224-.162l.823-4.8a1.908,1.908,0,0,0-.546-1.685L1.8,9.071A.155.155,0,0,1,1.882,8.8L6.8,8.281A1.919,1.919,0,0,0,8.271,7.235l2.166-5.4c0,.009.039-.016.1-.019-.018,0,.023.029.049.082L12.7,7.173a1.927,1.927,0,0,0,1.46,1.1l4.988.531a.155.155,0,0,1,.052.26l-3.624,3.578A1.9,1.9,0,0,0,15.032,14.327Z" transform="translate(0 -0.07)" fill="#fff"/>
    </g>
  </g>
</svg>
