<svg xmlns="http://www.w3.org/2000/svg" width="24" height="24" viewBox="0 0 24 24">
  <g id="user" transform="translate(4.408 2.846)">
    <g id="Path_103" data-name="Path 103" transform="translate(-4.408 -2.846)" fill="none">
      <path d="M12,0A12,12,0,1,1,0,12,12,12,0,0,1,12,0Z" stroke="none"/>
      <path d="M 12 1 C 9.061790466308594 1 6.299449920654297 2.144199371337891 4.221820831298828 4.221820831298828 C 2.144199371337891 6.299449920654297 1 9.061790466308594 1 12 C 1 14.93820953369141 2.144199371337891 17.7005500793457 4.221820831298828 19.77817916870117 C 6.299449920654297 21.85580062866211 9.061790466308594 23 12 23 C 14.93820953369141 23 17.7005500793457 21.85580062866211 19.77817916870117 19.77817916870117 C 21.85580062866211 17.7005500793457 23 14.93820953369141 23 12 C 23 9.061790466308594 21.85580062866211 6.299449920654297 19.77817916870117 4.221820831298828 C 17.7005500793457 2.144199371337891 14.93820953369141 1 12 1 M 12 0 C 18.62742042541504 0 24 5.372579574584961 24 12 C 24 18.62742042541504 18.62742042541504 24 12 24 C 5.372579574584961 24 0 18.62742042541504 0 12 C 0 5.372579574584961 5.372579574584961 0 12 0 Z" stroke="none" fill="#fff"/>
    </g>
    <g id="Group_111" data-name="Group 111" transform="translate(1.357 1.604)">
      <path id="Path_49" data-name="Path 49" d="M454.139,443.524a11.713,11.713,0,0,1-4.125-.719,4,4,0,0,1-1.569-1,1.717,1.717,0,0,1-.466-1.233,6.24,6.24,0,0,1,1.8-4.316.569.569,0,1,1,.815.79,5.117,5.117,0,0,0-1.423,2.87c-.029.194-.03.391-.054.586a.722.722,0,0,0,.27.646,3.432,3.432,0,0,0,1.183.662,9.415,9.415,0,0,0,2.521.526,11.666,11.666,0,0,0,4.091-.318,12.229,12.229,0,0,0,1.445-.567,1.665,1.665,0,0,0,.363-.252.823.823,0,0,0,.329-.745,5.149,5.149,0,0,0-1.453-3.376.647.647,0,0,1-.231-.535.545.545,0,0,1,.37-.48.538.538,0,0,1,.6.142,6.171,6.171,0,0,1,1.214,1.7,6.445,6.445,0,0,1,.632,2.613,1.8,1.8,0,0,1-.6,1.427,4.745,4.745,0,0,1-1.815,1A12.454,12.454,0,0,1,454.139,443.524Z" transform="translate(-447.978 -428.786)" fill="#fff"/>
      <path id="Path_50" data-name="Path 50" d="M515.964,230a4,4,0,1,1-3.956,3.968A3.972,3.972,0,0,1,515.964,230Zm-2.827,4a2.819,2.819,0,1,0,2.787-2.861A2.839,2.839,0,0,0,513.136,234Z" transform="translate(-509.721 -230)" fill="#fff"/>
    </g>
  </g>
</svg>
