<svg xmlns="http://www.w3.org/2000/svg" width="16" height="16" viewBox="0 0 16 16"><defs><style>.a{fill:#676f81;}</style></defs><g transform="translate(0 0)"><g transform="translate(0 -2)"><path class="a" d="M12.656,8.032a1.875,1.875,0,1,0,0,3.75h2.656l.031,0,.031,0A.625.625,0,0,0,16,11.157V6.25a2.5,2.5,0,0,0-1.036-2.025L12.838.737a.625.625,0,0,0-.863-.206L10.407,1.5,9.7.307A.625.625,0,0,0,8.837.091L2.816,3.75H1.875a.626.626,0,0,1-.625-.609.626.626,0,0,1,.625-.609H3.031a.625.625,0,1,0,0-1.25H1.875A1.878,1.878,0,0,0,.051,2.722.622.622,0,0,0,0,2.969V13.5A2.5,2.5,0,0,0,2.5,16h11a2.5,2.5,0,0,0,2.372-1.708.625.625,0,0,0-1.186-.4,1.249,1.249,0,0,1-1.186.854H2.5A1.251,1.251,0,0,1,1.25,13.5V4.893A1.866,1.866,0,0,0,1.875,5H13.5a1.251,1.251,0,0,1,1.25,1.25V8.032Zm2.094,2.5H12.656a.625.625,0,0,1,0-1.25H14.75ZM5.223,3.75,8.945,1.488l.666,1.126a.627.627,0,0,0,.046.09.634.634,0,0,0,.044.062l.581.984Zm6.511,0-.691-1.17L12.1,1.926,13.21,3.75Z" transform="translate(0 2)"/></g></g></svg>